<?xml version="1.0" encoding="UTF-8" standalone="no"?>
<!DOCTYPE svg PUBLIC "-//W3C//DTD SVG 1.1//EN"
 "http://www.w3.org/Graphics/SVG/1.1/DTD/svg11.dtd">
<!-- Generated by graphviz version 2.47.0 (20210316.0004)
 -->
<!-- Title: dependencies Pages: 1 -->
<svg width="880pt" height="211pt"
 viewBox="0.00 0.00 880.00 211.00" xmlns="http://www.w3.org/2000/svg" xmlns:xlink="http://www.w3.org/1999/xlink">
<g id="graph0" class="graph" transform="scale(1 1) rotate(0) translate(4 207)">
<title>dependencies</title>
<polygon fill="white" stroke="transparent" points="-4,4 -4,-207 876,-207 876,4 -4,4"/>
<text text-anchor="start" x="415.01" y="-42.4" font-family="Times-12" font-weight="bold" font-size="14.00">Legend</text>
<polygon fill="#ffffb3" stroke="transparent" points="202,-10 202,-30 222,-30 222,-10 202,-10"/>
<text text-anchor="start" x="225.63" y="-15.4" font-family="Times-12" font-size="14.00"> &#160;Declarations</text>
<polygon fill="#8dd3c7" stroke="transparent" points="315,-10 315,-30 335,-30 335,-10 315,-10"/>
<text text-anchor="start" x="338.73" y="-15.4" font-family="Times-12" font-size="14.00"> &#160;Module</text>
<polygon fill="#80b1d3" stroke="transparent" points="401,-10 401,-30 421,-30 421,-10 401,-10"/>
<text text-anchor="start" x="424.78" y="-15.4" font-family="Times-12" font-size="14.00"> &#160;Bootstrap</text>
<polygon fill="#fdb462" stroke="transparent" points="498,-10 498,-30 518,-30 518,-10 498,-10"/>
<text text-anchor="start" x="521.67" y="-15.4" font-family="Times-12" font-size="14.00"> &#160;Providers</text>
<polygon fill="#fb8072" stroke="transparent" points="594,-10 594,-30 614,-30 614,-10 594,-10"/>
<text text-anchor="start" x="617.73" y="-15.4" font-family="Times-12" font-size="14.00"> &#160;Exports</text>
<g id="clust1" class="cluster">
<title>cluster_IamModule</title>
<polygon fill="none" stroke="black" stroke-dasharray="1,5" points="8,-70 8,-195 864,-195 864,-70 8,-70"/>
</g>
<g id="clust3" class="cluster">
<title>cluster_IamModule_imports</title>
<polygon fill="none" stroke="black" points="748,-78 748,-130 856,-130 856,-78 748,-78"/>
</g>
<g id="clust6" class="cluster">
<title>cluster_IamModule_providers</title>
<polygon fill="none" stroke="black" points="16,-78 16,-130 740,-130 740,-78 16,-78"/>
</g>
<!-- UsersModule -->
<g id="node1" class="node">
<title>UsersModule</title>
<polygon fill="#8dd3c7" stroke="black" points="847.92,-122 844.92,-126 823.92,-126 820.92,-122 756.08,-122 756.08,-86 847.92,-86 847.92,-122"/>
<text text-anchor="middle" x="802" y="-99.8" font-family="Times,serif" font-size="14.00">UsersModule</text>
</g>
<!-- IamModule -->
<g id="node2" class="node">
<title>IamModule</title>
<polygon fill="#8dd3c7" stroke="black" points="489.82,-187 486.82,-191 465.82,-191 462.82,-187 408.18,-187 408.18,-151 489.82,-151 489.82,-187"/>
<text text-anchor="middle" x="449" y="-164.8" font-family="Times,serif" font-size="14.00">IamModule</text>
</g>
<!-- UsersModule&#45;&gt;IamModule -->
<g id="edge1" class="edge">
<title>UsersModule&#45;&gt;IamModule</title>
<path fill="none" stroke="black" d="M802,-122.28C802,-143.32 802,-175 802,-175 802,-175 499.84,-175 499.84,-175"/>
<polygon fill="black" stroke="black" points="499.84,-171.5 489.84,-175 499.84,-178.5 499.84,-171.5"/>
</g>
<!-- AuthenticationService -->
<g id="node3" class="node">
<title>AuthenticationService</title>
<ellipse fill="#fdb462" stroke="black" cx="635" cy="-104" rx="97.27" ry="18"/>
<text text-anchor="middle" x="635" y="-99.8" font-family="Times,serif" font-size="14.00">AuthenticationService</text>
</g>
<!-- AuthenticationService&#45;&gt;IamModule -->
<g id="edge2" class="edge">
<title>AuthenticationService&#45;&gt;IamModule</title>
<path fill="none" stroke="black" d="M635,-122.02C635,-139.37 635,-163 635,-163 635,-163 499.82,-163 499.82,-163"/>
<polygon fill="black" stroke="black" points="499.82,-159.5 489.82,-163 499.82,-166.5 499.82,-159.5"/>
</g>
<!-- BcryptProvider -->
<g id="node4" class="node">
<title>BcryptProvider</title>
<ellipse fill="#fdb462" stroke="black" cx="449" cy="-104" rx="70.65" ry="18"/>
<text text-anchor="middle" x="449" y="-99.8" font-family="Times,serif" font-size="14.00">BcryptProvider</text>
</g>
<!-- BcryptProvider&#45;&gt;IamModule -->
<g id="edge3" class="edge">
<title>BcryptProvider&#45;&gt;IamModule</title>
<path fill="none" stroke="black" d="M449,-122.11C449,-122.11 449,-140.99 449,-140.99"/>
<polygon fill="black" stroke="black" points="445.5,-140.99 449,-150.99 452.5,-140.99 445.5,-140.99"/>
</g>
<!-- JwtTokenProvider -->
<g id="node5" class="node">
<title>JwtTokenProvider</title>
<ellipse fill="#fdb462" stroke="black" cx="278" cy="-104" rx="82.24" ry="18"/>
<text text-anchor="middle" x="278" y="-99.8" font-family="Times,serif" font-size="14.00">JwtTokenProvider</text>
</g>
<!-- JwtTokenProvider&#45;&gt;IamModule -->
<g id="edge4" class="edge">
<title>JwtTokenProvider&#45;&gt;IamModule</title>
<path fill="none" stroke="black" d="M278,-122.02C278,-139.37 278,-163 278,-163 278,-163 398.04,-163 398.04,-163"/>
<polygon fill="black" stroke="black" points="398.04,-166.5 408.04,-163 398.04,-159.5 398.04,-166.5"/>
</g>
<!-- PasswordService -->
<g id="node6" class="node">
<title>PasswordService</title>
<ellipse fill="#fdb462" stroke="black" cx="101" cy="-104" rx="77" ry="18"/>
<text text-anchor="middle" x="101" y="-99.8" font-family="Times,serif" font-size="14.00">PasswordService</text>
</g>
<!-- PasswordService&#45;&gt;IamModule -->
<g id="edge5" class="edge">
<title>PasswordService&#45;&gt;IamModule</title>
<path fill="none" stroke="black" d="M101,-122.28C101,-143.32 101,-175 101,-175 101,-175 398.06,-175 398.06,-175"/>
<polygon fill="black" stroke="black" points="398.06,-178.5 408.06,-175 398.06,-171.5 398.06,-178.5"/>
</g>
</g>
</svg>
