<?xml version="1.0" encoding="UTF-8" standalone="no"?>
<!DOCTYPE svg PUBLIC "-//W3C//DTD SVG 1.1//EN"
 "http://www.w3.org/Graphics/SVG/1.1/DTD/svg11.dtd">
<!-- Generated by graphviz version 2.47.0 (20210316.0004)
 -->
<!-- Title: dependencies Pages: 1 -->
<svg width="796pt" height="211pt"
 viewBox="0.00 0.00 796.00 211.00" xmlns="http://www.w3.org/2000/svg" xmlns:xlink="http://www.w3.org/1999/xlink">
<g id="graph0" class="graph" transform="scale(1 1) rotate(0) translate(4 207)">
<title>dependencies</title>
<polygon fill="white" stroke="transparent" points="-4,4 -4,-207 792,-207 792,4 -4,4"/>
<text text-anchor="start" x="373.01" y="-42.4" font-family="Times-12" font-weight="bold" font-size="14.00">Legend</text>
<polygon fill="#ffffb3" stroke="transparent" points="160,-10 160,-30 180,-30 180,-10 160,-10"/>
<text text-anchor="start" x="183.63" y="-15.4" font-family="Times-12" font-size="14.00"> &#160;Declarations</text>
<polygon fill="#8dd3c7" stroke="transparent" points="273,-10 273,-30 293,-30 293,-10 273,-10"/>
<text text-anchor="start" x="296.73" y="-15.4" font-family="Times-12" font-size="14.00"> &#160;Module</text>
<polygon fill="#80b1d3" stroke="transparent" points="359,-10 359,-30 379,-30 379,-10 359,-10"/>
<text text-anchor="start" x="382.78" y="-15.4" font-family="Times-12" font-size="14.00"> &#160;Bootstrap</text>
<polygon fill="#fdb462" stroke="transparent" points="456,-10 456,-30 476,-30 476,-10 456,-10"/>
<text text-anchor="start" x="479.67" y="-15.4" font-family="Times-12" font-size="14.00"> &#160;Providers</text>
<polygon fill="#fb8072" stroke="transparent" points="552,-10 552,-30 572,-30 572,-10 552,-10"/>
<text text-anchor="start" x="575.73" y="-15.4" font-family="Times-12" font-size="14.00"> &#160;Exports</text>
<g id="clust1" class="cluster">
<title>cluster_IamModule</title>
<polygon fill="none" stroke="black" stroke-dasharray="1,5" points="8,-70 8,-195 780,-195 780,-70 8,-70"/>
</g>
<g id="clust3" class="cluster">
<title>cluster_IamModule_imports</title>
<polygon fill="none" stroke="black" points="664,-78 664,-130 772,-130 772,-78 664,-78"/>
</g>
<g id="clust6" class="cluster">
<title>cluster_IamModule_providers</title>
<polygon fill="none" stroke="black" points="16,-78 16,-130 656,-130 656,-78 16,-78"/>
</g>
<!-- UsersModule -->
<g id="node1" class="node">
<title>UsersModule</title>
<polygon fill="#8dd3c7" stroke="black" points="763.92,-122 760.92,-126 739.92,-126 736.92,-122 672.08,-122 672.08,-86 763.92,-86 763.92,-122"/>
<text text-anchor="middle" x="718" y="-99.8" font-family="Times,serif" font-size="14.00">UsersModule</text>
</g>
<!-- IamModule -->
<g id="node2" class="node">
<title>IamModule</title>
<polygon fill="#8dd3c7" stroke="black" points="473.82,-187 470.82,-191 449.82,-191 446.82,-187 392.18,-187 392.18,-151 473.82,-151 473.82,-187"/>
<text text-anchor="middle" x="433" y="-164.8" font-family="Times,serif" font-size="14.00">IamModule</text>
</g>
<!-- UsersModule&#45;&gt;IamModule -->
<g id="edge1" class="edge">
<title>UsersModule&#45;&gt;IamModule</title>
<path fill="none" stroke="black" d="M718,-122.28C718,-143.32 718,-175 718,-175 718,-175 483.83,-175 483.83,-175"/>
<polygon fill="black" stroke="black" points="483.83,-171.5 473.83,-175 483.83,-178.5 483.83,-171.5"/>
</g>
<!-- BcryptProvider -->
<g id="node3" class="node">
<title>BcryptProvider</title>
<ellipse fill="#fdb462" stroke="black" cx="577" cy="-104" rx="70.65" ry="18"/>
<text text-anchor="middle" x="577" y="-99.8" font-family="Times,serif" font-size="14.00">BcryptProvider</text>
</g>
<!-- BcryptProvider&#45;&gt;IamModule -->
<g id="edge2" class="edge">
<title>BcryptProvider&#45;&gt;IamModule</title>
<path fill="none" stroke="black" d="M577,-122.02C577,-139.37 577,-163 577,-163 577,-163 483.88,-163 483.88,-163"/>
<polygon fill="black" stroke="black" points="483.88,-159.5 473.88,-163 483.88,-166.5 483.88,-159.5"/>
</g>
<!-- IamService -->
<g id="node4" class="node">
<title>IamService</title>
<ellipse fill="#fdb462" stroke="black" cx="433" cy="-104" rx="55.01" ry="18"/>
<text text-anchor="middle" x="433" y="-99.8" font-family="Times,serif" font-size="14.00">IamService</text>
</g>
<!-- IamService&#45;&gt;IamModule -->
<g id="edge3" class="edge">
<title>IamService&#45;&gt;IamModule</title>
<path fill="none" stroke="black" d="M433,-122.11C433,-122.11 433,-140.99 433,-140.99"/>
<polygon fill="black" stroke="black" points="429.5,-140.99 433,-150.99 436.5,-140.99 429.5,-140.99"/>
</g>
<!-- JwtTokenProvider -->
<g id="node5" class="node">
<title>JwtTokenProvider</title>
<ellipse fill="#fdb462" stroke="black" cx="278" cy="-104" rx="82.24" ry="18"/>
<text text-anchor="middle" x="278" y="-99.8" font-family="Times,serif" font-size="14.00">JwtTokenProvider</text>
</g>
<!-- JwtTokenProvider&#45;&gt;IamModule -->
<g id="edge4" class="edge">
<title>JwtTokenProvider&#45;&gt;IamModule</title>
<path fill="none" stroke="black" d="M278,-122.02C278,-139.37 278,-163 278,-163 278,-163 382.28,-163 382.28,-163"/>
<polygon fill="black" stroke="black" points="382.28,-166.5 392.28,-163 382.28,-159.5 382.28,-166.5"/>
</g>
<!-- PasswordService -->
<g id="node6" class="node">
<title>PasswordService</title>
<ellipse fill="#fdb462" stroke="black" cx="101" cy="-104" rx="77" ry="18"/>
<text text-anchor="middle" x="101" y="-99.8" font-family="Times,serif" font-size="14.00">PasswordService</text>
</g>
<!-- PasswordService&#45;&gt;IamModule -->
<g id="edge5" class="edge">
<title>PasswordService&#45;&gt;IamModule</title>
<path fill="none" stroke="black" d="M101,-122.28C101,-143.32 101,-175 101,-175 101,-175 382.29,-175 382.29,-175"/>
<polygon fill="black" stroke="black" points="382.29,-178.5 392.29,-175 382.29,-171.5 382.29,-178.5"/>
</g>
</g>
</svg>
