<?xml version="1.0" encoding="UTF-8" standalone="no"?>
<!DOCTYPE svg PUBLIC "-//W3C//DTD SVG 1.1//EN"
 "http://www.w3.org/Graphics/SVG/1.1/DTD/svg11.dtd">
<!-- Generated by graphviz version 2.47.0 (20210316.0004)
 -->
<!-- Title: dependencies Pages: 1 -->
<svg width="1438pt" height="363pt"
 viewBox="0.00 0.00 1438.00 363.00" xmlns="http://www.w3.org/2000/svg" xmlns:xlink="http://www.w3.org/1999/xlink">
<g id="graph0" class="graph" transform="scale(1 1) rotate(0) translate(4 359)">
<title>dependencies</title>
<polygon fill="white" stroke="transparent" points="-4,4 -4,-359 1434,-359 1434,4 -4,4"/>
<text text-anchor="start" x="694.01" y="-42.4" font-family="Times-12" font-weight="bold" font-size="14.00">Legend</text>
<polygon fill="#ffffb3" stroke="transparent" points="481,-10 481,-30 501,-30 501,-10 481,-10"/>
<text text-anchor="start" x="504.63" y="-15.4" font-family="Times-12" font-size="14.00"> &#160;Declarations</text>
<polygon fill="#8dd3c7" stroke="transparent" points="594,-10 594,-30 614,-30 614,-10 594,-10"/>
<text text-anchor="start" x="617.73" y="-15.4" font-family="Times-12" font-size="14.00"> &#160;Module</text>
<polygon fill="#80b1d3" stroke="transparent" points="680,-10 680,-30 700,-30 700,-10 680,-10"/>
<text text-anchor="start" x="703.78" y="-15.4" font-family="Times-12" font-size="14.00"> &#160;Bootstrap</text>
<polygon fill="#fdb462" stroke="transparent" points="777,-10 777,-30 797,-30 797,-10 777,-10"/>
<text text-anchor="start" x="800.67" y="-15.4" font-family="Times-12" font-size="14.00"> &#160;Providers</text>
<polygon fill="#fb8072" stroke="transparent" points="873,-10 873,-30 893,-30 893,-10 873,-10"/>
<text text-anchor="start" x="896.73" y="-15.4" font-family="Times-12" font-size="14.00"> &#160;Exports</text>
<g id="clust1" class="cluster">
<title>cluster_AppConfigModule</title>
<polygon fill="none" stroke="black" stroke-dasharray="1,5" points="8,-146 8,-282 150,-282 150,-146 8,-146"/>
</g>
<g id="clust3" class="cluster">
<title>cluster_AppConfigModule_imports</title>
<polygon fill="none" stroke="black" points="16,-154 16,-206 142,-206 142,-154 16,-154"/>
</g>
<g id="clust7" class="cluster">
<title>cluster_AppModule</title>
<polygon fill="none" stroke="black" stroke-dasharray="1,5" points="906,-146 906,-347 1140,-347 1140,-146 906,-146"/>
</g>
<g id="clust9" class="cluster">
<title>cluster_AppModule_imports</title>
<polygon fill="none" stroke="black" points="914,-154 914,-282 1132,-282 1132,-154 914,-154"/>
</g>
<g id="clust19" class="cluster">
<title>cluster_IamModule</title>
<polygon fill="none" stroke="black" stroke-dasharray="1,5" points="158,-146 158,-214 898,-214 898,-146 158,-146"/>
</g>
<g id="clust24" class="cluster">
<title>cluster_IamModule_providers</title>
<polygon fill="none" stroke="black" points="166,-154 166,-206 890,-206 890,-154 166,-154"/>
</g>
<g id="clust25" class="cluster">
<title>cluster_TasksModule</title>
<polygon fill="none" stroke="black" stroke-dasharray="1,5" points="893,-70 893,-138 1043,-138 1043,-70 893,-70"/>
</g>
<g id="clust30" class="cluster">
<title>cluster_TasksModule_providers</title>
<polygon fill="none" stroke="black" points="901,-78 901,-130 1035,-130 1035,-78 901,-78"/>
</g>
<g id="clust31" class="cluster">
<title>cluster_UsersModule</title>
<polygon fill="none" stroke="black" stroke-dasharray="1,5" points="1148,-222 1148,-290 1422,-290 1422,-222 1148,-222"/>
</g>
<g id="clust34" class="cluster">
<title>cluster_UsersModule_exports</title>
<polygon fill="none" stroke="black" points="1304,-230 1304,-282 1414,-282 1414,-230 1304,-230"/>
</g>
<g id="clust36" class="cluster">
<title>cluster_UsersModule_providers</title>
<polygon fill="none" stroke="black" points="1156,-230 1156,-282 1296,-282 1296,-230 1156,-230"/>
</g>
<!-- DatabaseModule -->
<g id="node1" class="node">
<title>DatabaseModule</title>
<polygon fill="#8dd3c7" stroke="black" points="134.35,-198 131.35,-202 110.35,-202 107.35,-198 23.65,-198 23.65,-162 134.35,-162 134.35,-198"/>
<text text-anchor="middle" x="79" y="-175.8" font-family="Times,serif" font-size="14.00">DatabaseModule</text>
</g>
<!-- AppConfigModule -->
<g id="node2" class="node">
<title>AppConfigModule</title>
<polygon fill="#8dd3c7" stroke="black" points="141.05,-274 138.05,-278 117.05,-278 114.05,-274 18.95,-274 18.95,-238 141.05,-238 141.05,-274"/>
<text text-anchor="middle" x="80" y="-251.8" font-family="Times,serif" font-size="14.00">AppConfigModule</text>
</g>
<!-- DatabaseModule&#45;&gt;AppConfigModule -->
<g id="edge1" class="edge">
<title>DatabaseModule&#45;&gt;AppConfigModule</title>
<path fill="none" stroke="black" d="M79,-198.01C79,-198.01 79,-227.85 79,-227.85"/>
<polygon fill="black" stroke="black" points="75.5,-227.85 79,-237.85 82.5,-227.85 75.5,-227.85"/>
</g>
<!-- AppModule -->
<g id="node6" class="node">
<title>AppModule</title>
<polygon fill="#8dd3c7" stroke="black" points="1034.66,-339 1031.66,-343 1010.66,-343 1007.66,-339 951.34,-339 951.34,-303 1034.66,-303 1034.66,-339"/>
<text text-anchor="middle" x="993" y="-316.8" font-family="Times,serif" font-size="14.00">AppModule</text>
</g>
<!-- AppConfigModule&#45;&gt;AppModule -->
<g id="edge2" class="edge">
<title>AppConfigModule&#45;&gt;AppModule</title>
<path fill="none" stroke="black" d="M80,-274.11C80,-293.34 80,-321 80,-321 80,-321 941.1,-321 941.1,-321"/>
<polygon fill="black" stroke="black" points="941.1,-324.5 951.1,-321 941.1,-317.5 941.1,-324.5"/>
</g>
<!-- IamModule -->
<g id="node3" class="node">
<title>IamModule</title>
<polygon fill="#8dd3c7" stroke="black" points="1003.82,-274 1000.82,-278 979.82,-278 976.82,-274 922.18,-274 922.18,-238 1003.82,-238 1003.82,-274"/>
<text text-anchor="middle" x="963" y="-251.8" font-family="Times,serif" font-size="14.00">IamModule</text>
</g>
<!-- IamModule&#45;&gt;AppModule -->
<g id="edge3" class="edge">
<title>IamModule&#45;&gt;AppModule</title>
<path fill="none" stroke="black" d="M977.41,-274.11C977.41,-274.11 977.41,-292.99 977.41,-292.99"/>
<polygon fill="black" stroke="black" points="973.91,-292.99 977.41,-302.99 980.91,-292.99 973.91,-292.99"/>
</g>
<!-- TasksModule -->
<g id="node4" class="node">
<title>TasksModule</title>
<polygon fill="#8dd3c7" stroke="black" points="1014.21,-198 1011.21,-202 990.21,-202 987.21,-198 921.79,-198 921.79,-162 1014.21,-162 1014.21,-198"/>
<text text-anchor="middle" x="968" y="-175.8" font-family="Times,serif" font-size="14.00">TasksModule</text>
</g>
<!-- TasksModule&#45;&gt;AppModule -->
<g id="edge4" class="edge">
<title>TasksModule&#45;&gt;AppModule</title>
<path fill="none" stroke="black" d="M1008.88,-198.14C1008.88,-198.14 1008.88,-292.93 1008.88,-292.93"/>
<polygon fill="black" stroke="black" points="1005.38,-292.92 1008.88,-302.93 1012.38,-292.93 1005.38,-292.92"/>
</g>
<!-- UsersModule -->
<g id="node5" class="node">
<title>UsersModule</title>
<polygon fill="#8dd3c7" stroke="black" points="1123.92,-198 1120.92,-202 1099.92,-202 1096.92,-198 1032.08,-198 1032.08,-162 1123.92,-162 1123.92,-198"/>
<text text-anchor="middle" x="1078" y="-175.8" font-family="Times,serif" font-size="14.00">UsersModule</text>
</g>
<!-- UsersModule&#45;&gt;IamModule -->
<g id="edge6" class="edge">
<title>UsersModule&#45;&gt;IamModule</title>
<path fill="none" stroke="black" d="M1064.46,-198.2C1064.46,-222.36 1064.46,-262 1064.46,-262 1064.46,-262 1013.68,-262 1013.68,-262"/>
<polygon fill="black" stroke="black" points="1013.68,-258.5 1003.68,-262 1013.68,-265.5 1013.68,-258.5"/>
</g>
<!-- UsersModule&#45;&gt;AppModule -->
<g id="edge5" class="edge">
<title>UsersModule&#45;&gt;AppModule</title>
<path fill="none" stroke="black" d="M1032.08,-180C1025.24,-180 1020.43,-180 1020.43,-180 1020.43,-180 1020.43,-292.86 1020.43,-292.86"/>
<polygon fill="black" stroke="black" points="1016.93,-292.86 1020.43,-302.86 1023.93,-292.86 1016.93,-292.86"/>
</g>
<!-- UsersService  -->
<g id="node12" class="node">
<title>UsersService </title>
<polygon fill="#fb8072" stroke="black" points="1405.85,-274 1312.15,-274 1312.15,-238 1405.85,-238 1405.85,-274"/>
<text text-anchor="middle" x="1359" y="-251.8" font-family="Times,serif" font-size="14.00">UsersService </text>
</g>
<!-- UsersModule&#45;&gt;UsersService  -->
<g id="edge12" class="edge">
<title>UsersModule&#45;&gt;UsersService </title>
<path fill="none" stroke="black" stroke-dasharray="5,2" d="M1123.77,-180C1203.4,-180 1359,-180 1359,-180 1359,-180 1359,-227.99 1359,-227.99"/>
<polygon fill="black" stroke="black" points="1355.5,-227.99 1359,-237.99 1362.5,-227.99 1355.5,-227.99"/>
</g>
<!-- AuthenticationService -->
<g id="node7" class="node">
<title>AuthenticationService</title>
<ellipse fill="#fdb462" stroke="black" cx="431" cy="-180" rx="97.27" ry="18"/>
<text text-anchor="middle" x="431" y="-175.8" font-family="Times,serif" font-size="14.00">AuthenticationService</text>
</g>
<!-- AuthenticationService&#45;&gt;IamModule -->
<g id="edge7" class="edge">
<title>AuthenticationService&#45;&gt;IamModule</title>
<path fill="none" stroke="black" d="M431,-198.15C431,-221.76 431,-260 431,-260 431,-260 912.14,-260 912.14,-260"/>
<polygon fill="black" stroke="black" points="912.14,-263.5 922.14,-260 912.14,-256.5 912.14,-263.5"/>
</g>
<!-- BcryptProvider -->
<g id="node8" class="node">
<title>BcryptProvider</title>
<ellipse fill="#fdb462" stroke="black" cx="245" cy="-180" rx="70.65" ry="18"/>
<text text-anchor="middle" x="245" y="-175.8" font-family="Times,serif" font-size="14.00">BcryptProvider</text>
</g>
<!-- BcryptProvider&#45;&gt;IamModule -->
<g id="edge8" class="edge">
<title>BcryptProvider&#45;&gt;IamModule</title>
<path fill="none" stroke="black" d="M245,-198.03C245,-223.51 245,-267 245,-267 245,-267 912.34,-267 912.34,-267"/>
<polygon fill="black" stroke="black" points="912.34,-270.5 922.34,-267 912.34,-263.5 912.34,-270.5"/>
</g>
<!-- JwtTokenProvider -->
<g id="node9" class="node">
<title>JwtTokenProvider</title>
<ellipse fill="#fdb462" stroke="black" cx="800" cy="-180" rx="82.24" ry="18"/>
<text text-anchor="middle" x="800" y="-175.8" font-family="Times,serif" font-size="14.00">JwtTokenProvider</text>
</g>
<!-- JwtTokenProvider&#45;&gt;IamModule -->
<g id="edge9" class="edge">
<title>JwtTokenProvider&#45;&gt;IamModule</title>
<path fill="none" stroke="black" d="M800,-198.03C800,-217.58 800,-246 800,-246 800,-246 912.29,-246 912.29,-246"/>
<polygon fill="black" stroke="black" points="912.29,-249.5 922.29,-246 912.29,-242.5 912.29,-249.5"/>
</g>
<!-- PasswordService -->
<g id="node10" class="node">
<title>PasswordService</title>
<ellipse fill="#fdb462" stroke="black" cx="623" cy="-180" rx="77" ry="18"/>
<text text-anchor="middle" x="623" y="-175.8" font-family="Times,serif" font-size="14.00">PasswordService</text>
</g>
<!-- PasswordService&#45;&gt;IamModule -->
<g id="edge10" class="edge">
<title>PasswordService&#45;&gt;IamModule</title>
<path fill="none" stroke="black" d="M623,-198.04C623,-219.66 623,-253 623,-253 623,-253 912.33,-253 912.33,-253"/>
<polygon fill="black" stroke="black" points="912.33,-256.5 922.33,-253 912.33,-249.5 912.33,-256.5"/>
</g>
<!-- TaskService -->
<g id="node11" class="node">
<title>TaskService</title>
<ellipse fill="#fdb462" stroke="black" cx="968" cy="-104" rx="58.53" ry="18"/>
<text text-anchor="middle" x="968" y="-99.8" font-family="Times,serif" font-size="14.00">TaskService</text>
</g>
<!-- TaskService&#45;&gt;TasksModule -->
<g id="edge11" class="edge">
<title>TaskService&#45;&gt;TasksModule</title>
<path fill="none" stroke="black" d="M968,-122.01C968,-122.01 968,-151.85 968,-151.85"/>
<polygon fill="black" stroke="black" points="964.5,-151.85 968,-161.85 971.5,-151.85 964.5,-151.85"/>
</g>
<!-- UsersService -->
<g id="node13" class="node">
<title>UsersService</title>
<ellipse fill="#fdb462" stroke="black" cx="1226" cy="-256" rx="61.95" ry="18"/>
<text text-anchor="middle" x="1226" y="-251.8" font-family="Times,serif" font-size="14.00">UsersService</text>
</g>
<!-- UsersService&#45;&gt;UsersModule -->
<g id="edge13" class="edge">
<title>UsersService&#45;&gt;UsersModule</title>
<path fill="none" stroke="black" d="M1167.37,-250C1132.14,-250 1094.08,-250 1094.08,-250 1094.08,-250 1094.08,-208.03 1094.08,-208.03"/>
<polygon fill="black" stroke="black" points="1097.58,-208.03 1094.08,-198.03 1090.58,-208.03 1097.58,-208.03"/>
</g>
</g>
</svg>
